# xmcd CD database file
#
# Track frame offsets:
#	150
#	16195
#	30507
#	44520
#	63156
#	78955
#	95276
#	109776
#	126943
#	142719
#	168506
#	180627
#	199019
#	218300
#	233871
#	248186
#	261851
#
# Disc length: 3657 seconds
#
# Revision: 2
# Processed by: cddbd v1.5.2PL0 Copyright (c) Steve Scherf et al.
# Submitted via: CDex 1.51
#
DISCID=d60e4711
DTITLE=Various Artist - RC94
DYEAR=2006
DGENRE=Country
TTITLE0=Rascal Flatts - What Hurts The Most
TTITLE1=Miranda Lambert - Kerosene
TTITLE2=Toby Keith - Get Drunk And Be Somebody
TTITLE3=Tracy Lawrence - If I Don't Make It Back
TTITLE4=Sara Evans - Cheatin'
TTITLE5=Josh Turner - Your Man
TTITLE6=Montgomery Gentry - She Don't Tell Me To
TTITLE7=Lee Ann Womack - Twenty Years And Two Husbands Ago
TTITLE8=Kenny Chesney - Living In Fast Forward
TTITLE9=Brooks and Dunn - Believe
TTITLE10=Blake Shelton - Nobody But Me
TTITLE11=Rockie Lynne - Lipstick
TTITLE12=Keith Urban - Tonight I Wanna Cry
TTITLE13=Van Zant - Nobody Gonna Tell Me What To Do
TTITLE14=Susan Haynes - Drinkin' In My Sunday Dress
TTITLE15=Jamey Johnson - The Dollar
TTITLE16=Joaquin Phoenix Reese Witherspoon - Jackson
EXTD=YEAR: 2006
EXTT0=
EXTT1=
EXTT2=
EXTT3=
EXTT4=
EXTT5=
EXTT6=
EXTT7=
EXTT8=
EXTT9=
EXTT10=
EXTT11=
EXTT12=
EXTT13=
EXTT14=
EXTT15=
EXTT16=
PLAYORDER=
